:SAMPLES-PER-SECOND 30
:FULLY-SPECIFIED
:DEGREES
167
root  33.8655 37.3042 -18.3334 87.6765 82.6519 86.5809
RightUpLeg  -31.2763 -16.1636 -11.332
RightLeg  11.067 -1.1442 2.94426
RightFoot  15.161 -0.649539 3.23358
RightToes  0.00048216 0.542163 -0.142577
Spine  40.2039 -4.08188 0.579542
Spine1  12.065 -4.33353 -0.589109
HEad  -6.61908 0.548275 -6.98852
LeftShoulder1  10.1903 -17.62 -41.8536
LeftArm  -4.93391 -31.8881 -28.181
LeftForeArm  -8.17437 -29.9144 -6.94142
LeftHand  -0.25398 0.0180481 5.50724
RightShoulder  4.91627 10.4644 29.2159
RightArm  -9.70389 16.8934 23.3514
RightForeArm  -50.4282 48.3367 15.1508
RightHand  0.0541304 -6.16277 -12.788
LeftUpLeg  -26.0479 4.65323 -8.47192
LeftLeg  46.3194 5.2292 6.31159
LeftFoot  -9.36157 0.0435544 0.819135
LeftToes  1.06243e-005 4.65856e-005 -8.18503e-006
168
root  34.4994 36.9748 -17.7019 99.0118 84.3779 96.9468
RightUpLeg  -35.5341 -21.3528 -5.75652
RightLeg  16.6416 4.04956 3.66639
RightFoot  18.5354 0.343853 -0.88748
RightToes  0.00048216 0.542163 -0.142577
Spine  43.0823 -5.05332 4.21045
Spine1  11.6048 -3.74978 -1.34257
HEad  -9.37499 -1.09196 -6.40146
LeftShoulder1  10.3959 -18.2965 -41.3284
LeftArm  -3.22566 -37.2249 -28.6458
LeftForeArm  -10.0513 -25.9525 -6.05236
LeftHand  -0.25398 0.0180481 5.50724
RightShoulder  4.90952 10.7497 28.4455
RightArm  -10.8824 20.364 22.1051
RightForeArm  -52.4232 44.7991 13.5729
RightHand  -0.041919 -5.24762 -12.1263
LeftUpLeg  -32.3851 6.3623 -6.7903
LeftLeg  55.2537 5.95293 9.63004
LeftFoot  -3.78877 -0.103272 1.65569
LeftToes  1.06243e-005 4.65856e-005 -8.18503e-006
169
root  35.0048 36.7939 -17.1109 103.895 86.2997 100.664
RightUpLeg  -39.9577 -24.8872 0.833662
RightLeg  21.8312 7.76419 3.45237
RightFoot  15.7359 1.0386 -3.85104
RightToes  0.00048216 0.542163 -0.142577
Spine  46.6985 -5.38768 6.61712
Spine1  11.1992 -3.03664 -1.20338
HEad  -12.8865 -1.76258 -6.31902
LeftShoulder1  10.5125 -19.043 -40.3203
LeftArm  -4.23693 -42.2426 -28.6374
LeftForeArm  -11.0288 -22.4893 -5.54202
LeftHand  -0.25398 0.0180481 5.50724
RightShoulder  4.78577 11.0537 26.8251
RightArm  -11.7738 25.8723 21.0623
RightForeArm  -54.2956 39.7853 11.6523
RightHand  -0.0913599 -4.67012 -10.4647
LeftUpLeg  -38.1329 9.61262 -5.95442
LeftLeg  59.7855 6.02624 11.55
LeftFoot  0.00138597 -0.466105 4.80894
LeftToes  1.06243e-005 4.65856e-005 -8.18503e-006
170
root  35.4811 36.8301 -16.5028 112.662 86.8251 107.47
RightUpLeg  -42.2475 -24.3876 3.09769
RightLeg  23.8255 6.81314 3.02109
RightFoot  12.7239 1.07125 -4.59557
RightToes  0.00048216 0.542163 -0.142577
Spine  50.1222 -5.45692 6.69483
Spine1  10.8546 -2.90403 -0.637441
HEad  -16.4269 -1.47261 -6.61448
LeftShoulder1  10.4812 -19.8274 -38.6903
LeftArm  -9.66248 -46.7317 -27.3449
LeftForeArm  -10.0096 -19.0005 -5.93604
LeftHand  -0.25398 0.0180481 5.50724
RightShoulder  4.71974 11.4903 25.3684
RightArm  -12.8274 32.6969 19.6848
RightForeArm  -55.2266 34.1144 9.81085
RightHand  -0.0935902 -4.43151 -8.14362
LeftUpLeg  -42.5115 12.4887 -7.45677
LeftLeg  57.9021 5.44611 9.86797
LeftFoot  -0.861814 -0.531219 5.76135
LeftToes  1.06243e-005 4.65856e-005 -8.18503e-006
171
root  35.9625 36.9751 -15.9381 130.602 86.07 122.363
RightUpLeg  -44.8999 -24.7339 4.67021
RightLeg  23.9129 6.48582 2.91846
RightFoot  12.3651 1.10661 -4.85643
RightToes  0.00048216 0.542163 -0.142577
Spine  52.2283 -5.79386 6.29926
Spine1  11.0238 -3.3476 -0.00328526
HEad  -19.9399 -1.10899 -6.95063
LeftShoulder1  10.4513 -20.7299 -36.9431
LeftArm  -17.4714 -51.3237 -24.5025
LeftForeArm  -8.30787 -15.1292 -6.42789
LeftHand  -0.25398 0.0180481 5.50724
RightShoulder  4.7497 12.1316 24.2156
RightArm  -15.5818 39.2601 17.4236
RightForeArm  -54.9493 29.0942 8.39224
RightHand  -0.0891265 -4.18844 -6.10479
LeftUpLeg  -45.9017 13.9014 -10.5121
LeftLeg  50.5259 3.5804 5.20093
LeftFoot  -3.51565 -0.0882266 1.53096
LeftToes  1.06243e-005 4.65856e-005 -8.18503e-006
